# xmcd CD database file
#
# Track frame offsets:
#	150
#	12898
#	30102
#	51086
#	66484
#	87254
#	107613
#	123557
#	143234
#	171070
#	183585
#	201885
#	220577
#
# Disc length: 3008 seconds
#
# Revision: 0
# Processed by: cddbd v1.5.2PL0 Copyright (c) Steve Scherf et al.
# Submitted via: CDex 1.70beta2
#
DISCID=b00bbe0d
DTITLE=Rocky Gresset - Rocky Gresset
DYEAR=2009
DGENRE=Jazz
TTITLE0=01-The way tou look tonight
TTITLE1=02- Blue Skies
TTITLE2=03-My Foolish heart
TTITLE3=04-jingles
TTITLE4=05-Dream of you
TTITLE5=06-Looking up master new
TTITLE6=07-Just one of those things
TTITLE7=08-Ballade pour rose
TTITLE8=09-Polka dots and moonbeams
TTITLE9=10-Darn that dream
TTITLE10=11-Webster
TTITLE11=12-Times on my hand
TTITLE12=13-Pour Toi
EXTD=YEAR: 2009
EXTT0=
EXTT1=
EXTT2=
EXTT3=
EXTT4=
EXTT5=
EXTT6=
EXTT7=
EXTT8=
EXTT9=
EXTT10=
EXTT11=
EXTT12=
PLAYORDER=
